<svg width="50" height="50" viewBox="0 0 500 500" fill="none" xmlns="http://www.w3.org/2000/svg">
<rect width="500" height="500" rx="70" fill="white"/>
<circle cx="250" cy="250" r="235" fill="#222"/>
<path d="M339.726 326.053C338.389 326.053 337.306 324.97 337.306 323.633C337.306 322.296 338.389 321.213 339.726 321.213H407.723C409.06 321.213 410.142 322.296 410.142 323.633C410.142 324.97 409.06 326.053 407.723 326.053H339.726ZM249.679 199.981C246.455 199.981 243.539 201.288 241.428 203.399C239.317 205.51 238.01 208.426 238.01 211.65C238.01 214.875 239.317 217.791 241.428 219.902C243.539 222.013 246.455 223.32 249.679 223.32C252.904 223.32 255.82 222.013 257.931 219.902C260.042 217.791 261.349 214.875 261.349 211.65C261.349 208.426 260.042 205.51 257.931 203.399C255.82 201.288 252.904 199.981 249.679 199.981ZM238.01 199.975C240.998 196.986 245.124 195.141 249.679 195.141C254.235 195.141 258.36 196.986 261.349 199.975C264.337 202.963 266.182 207.089 266.182 211.644C266.182 216.2 264.337 220.325 261.349 223.314C258.36 226.302 254.235 228.147 249.679 228.147C245.124 228.147 240.998 226.302 238.01 223.314C235.021 220.325 233.176 216.2 233.176 211.644C233.176 207.089 235.021 202.963 238.01 199.975ZM101.563 191.003C99.688 191.003 97.9881 191.766 96.754 192.994C95.526 194.222 94.7637 195.922 94.7637 197.803C94.7637 199.678 95.526 201.378 96.754 202.612C97.9821 203.84 99.682 204.603 101.563 204.603C103.439 204.603 105.139 203.84 106.373 202.612C107.601 201.384 108.363 199.684 108.363 197.803C108.363 195.928 107.601 194.228 106.373 192.994C105.145 191.766 103.445 191.003 101.563 191.003ZM93.336 189.576C95.4413 187.471 98.3511 186.164 101.563 186.164C104.776 186.164 107.685 187.464 109.791 189.576C111.896 191.681 113.203 194.591 113.203 197.803C113.203 201.015 111.902 203.925 109.791 206.03C107.685 208.136 104.776 209.442 101.563 209.442C98.3511 209.442 95.4413 208.142 93.336 206.03C91.2308 203.925 89.9241 201.015 89.9241 197.803C89.9241 194.591 91.2248 191.681 93.336 189.576ZM110.529 229.418C107.304 229.418 104.388 230.724 102.277 232.836C100.166 234.947 98.8592 237.863 98.8592 241.087C98.8592 244.312 100.166 247.228 102.277 249.339C104.388 251.45 107.304 252.757 110.529 252.757C113.753 252.757 116.669 251.45 118.78 249.339C120.892 247.228 122.198 244.312 122.198 241.087C122.198 237.863 120.892 234.947 118.78 232.836C116.669 230.724 113.753 229.418 110.529 229.418ZM98.8592 229.412C101.848 226.423 105.973 224.578 110.529 224.578C115.084 224.578 119.21 226.423 122.198 229.412C125.187 232.4 127.032 236.526 127.032 241.081C127.032 245.636 125.187 249.762 122.198 252.751C119.21 255.739 115.084 257.584 110.529 257.584C105.973 257.584 101.848 255.739 98.8592 252.751C95.8708 249.762 94.0257 245.636 94.0257 241.081C94.0257 236.526 95.8708 232.4 98.8592 229.412ZM151.508 180.762C148.284 180.762 145.368 182.068 143.257 184.18C141.145 186.291 139.839 189.207 139.839 192.431C139.839 195.655 141.145 198.571 143.257 200.683C145.368 202.794 148.284 204.101 151.508 204.101C154.732 204.101 157.648 202.794 159.76 200.683C161.871 198.571 163.178 195.655 163.178 192.431C163.178 189.207 161.871 186.291 159.76 184.18C157.648 182.068 154.732 180.762 151.508 180.762ZM139.839 180.756C142.827 177.767 146.953 175.922 151.508 175.922C156.063 175.922 160.189 177.767 163.178 180.756C166.166 183.744 168.011 187.87 168.011 192.425C168.011 196.98 166.166 201.106 163.178 204.095C160.189 207.083 156.063 208.928 151.508 208.928C146.953 208.928 142.827 207.083 139.839 204.095C136.85 201.106 135.005 196.98 135.005 192.425C135.005 187.87 136.85 183.744 139.839 180.756ZM195.561 119.813C192.336 119.813 189.42 121.12 187.309 123.231C185.198 125.342 183.891 128.258 183.891 131.482C183.891 134.707 185.198 137.623 187.309 139.734C189.42 141.845 192.336 143.152 195.561 143.152C198.785 143.152 201.701 141.845 203.812 139.734C205.923 137.623 207.23 134.707 207.23 131.482C207.23 128.258 205.923 125.342 203.812 123.231C201.701 121.12 198.785 119.813 195.561 119.813ZM183.891 119.807C186.879 116.818 191.005 114.973 195.561 114.973C200.116 114.973 204.242 116.818 207.23 119.807C210.218 122.795 212.064 126.921 212.064 131.476C212.064 136.032 210.218 140.157 207.23 143.146C204.242 146.134 200.116 147.979 195.561 147.979C191.005 147.979 186.879 146.134 183.891 143.146C180.903 140.157 179.057 136.032 179.057 131.476C179.057 126.921 180.903 122.795 183.891 119.807ZM233.975 78.8396C230.75 78.8396 227.835 80.1463 225.723 82.2576C223.612 84.3688 222.305 87.2847 222.305 90.5091C222.305 93.7335 223.612 96.6493 225.723 98.7606C227.835 100.872 230.75 102.179 233.975 102.179C237.199 102.179 240.115 100.872 242.226 98.7606C244.338 96.6493 245.644 93.7335 245.644 90.5091C245.644 87.2847 244.338 84.3688 242.226 82.2576C240.115 80.1463 237.199 78.8396 233.975 78.8396ZM222.305 78.8336C225.294 75.8451 229.42 74 233.975 74C238.53 74 242.656 75.8451 245.644 78.8336C247.719 80.9085 249.238 83.528 249.982 86.462C250.72 83.528 252.244 80.9085 254.319 78.8336C257.308 75.8451 261.434 74 265.989 74C270.544 74 274.67 75.8451 277.658 78.8336C280.647 81.822 282.492 85.9478 282.492 90.503C282.492 95.0583 280.647 99.1841 277.658 102.173C274.67 105.161 270.544 107.006 265.989 107.006C261.434 107.006 257.308 105.161 254.319 102.173C252.244 100.098 250.726 97.4781 249.982 94.5441C249.244 97.4781 247.719 100.098 245.644 102.173C242.656 105.161 238.53 107.006 233.975 107.006C229.42 107.006 225.294 105.161 222.305 102.173C219.317 99.1841 217.472 95.0583 217.472 90.503C217.472 85.9478 219.317 81.822 222.305 78.8336ZM248.167 187.785C248.185 189.116 247.126 190.211 245.796 190.235C244.465 190.253 243.37 189.195 243.346 187.864C243.049 169.346 238.893 151.664 230.581 134.912C222.457 118.536 210.339 103.026 193.957 88.4704C192.959 87.5811 192.869 86.0567 193.758 85.0585C194.647 84.0603 196.172 83.9696 197.17 84.8589C214.012 99.8193 226.498 115.826 234.906 132.771C243.539 150.169 247.858 168.542 248.167 187.785ZM176.015 174.391C173.165 169.274 171.114 163.345 169.699 156.908C167.007 144.676 166.596 130.551 167.291 116.77C167.352 115.439 168.483 114.411 169.814 114.471C171.145 114.532 172.173 115.663 172.113 116.994C171.435 130.381 171.834 144.071 174.43 155.868C176.94 167.289 181.508 176.878 189.166 182.522C195.748 186.739 202.003 191.251 207.079 196.823C204.853 184.288 205.476 170.623 211.223 154.725C211.676 153.472 213.062 152.825 214.314 153.279C215.566 153.732 216.214 155.118 215.76 156.37C203.764 189.546 215.639 212.878 228.01 237.179C231.162 243.368 234.344 249.617 237.199 256.157C238.663 258.933 239.867 261.831 240.793 264.85C242.19 269.405 242.94 274.208 242.94 279.241V328.878L249.782 336.966L257.03 328.847V279.241C257.03 274.208 257.78 269.405 259.177 264.85C260.103 261.837 261.307 258.939 262.77 256.157C265.632 249.617 268.814 243.368 271.96 237.179C284.331 212.878 296.206 189.546 284.21 156.37C283.756 155.118 284.404 153.732 285.656 153.279C286.908 152.825 288.293 153.472 288.747 154.725C294.494 170.623 295.117 184.288 292.891 196.823C297.967 191.251 304.222 186.739 310.804 182.522C318.462 176.878 323.03 167.289 325.54 155.868C328.135 144.071 328.529 130.381 327.857 116.994C327.797 115.663 328.825 114.532 330.156 114.471C331.487 114.411 332.618 115.439 332.679 116.77C333.374 130.551 332.963 144.676 330.271 156.908C328.855 163.345 326.804 169.274 323.955 174.391C336.278 166.684 347.712 158.288 352.037 144.344C352.43 143.067 353.779 142.353 355.05 142.747C356.326 143.14 357.04 144.489 356.647 145.759C351.148 163.46 336.139 172.625 321.118 181.802C307.809 189.933 294.494 198.069 288.741 212.11C285.45 221.287 281.004 230.065 276.479 238.958C282.788 233.296 290.314 228.444 298.559 224.445C317.216 215.389 339.635 210.64 359.98 210.64C370.669 210.64 380.833 211.953 389.623 214.651C390.899 215.044 391.613 216.393 391.22 217.664C390.826 218.94 389.477 219.654 388.207 219.261C379.913 216.72 370.24 215.48 359.986 215.48C340.313 215.48 318.662 220.059 300.665 228.795C285.952 235.939 273.714 245.842 267.126 258.25C265.813 261.25 264.579 264.293 263.46 267.391C262.42 271.141 261.869 275.092 261.869 279.254V329.767H261.857C261.857 330.342 261.657 330.916 261.246 331.376L251.633 342.144C251.537 342.271 251.422 342.392 251.295 342.501C250.278 343.36 248.754 343.233 247.889 342.217L238.784 331.455C238.367 331.019 238.107 330.426 238.107 329.773V279.26C238.107 275.104 237.55 271.147 236.516 267.397C235.403 264.299 234.162 261.256 232.85 258.256C226.262 245.848 214.024 235.945 199.311 228.801C181.314 220.065 159.663 215.486 139.99 215.486C129.736 215.486 120.063 216.726 111.769 219.267C110.492 219.66 109.143 218.94 108.756 217.67C108.363 216.393 109.083 215.044 110.353 214.657C119.143 211.965 129.3 210.646 139.996 210.646C160.34 210.646 182.754 215.395 201.416 224.451C209.662 228.456 217.187 233.308 223.497 238.964C218.978 230.077 214.538 221.311 211.247 212.14C205.5 198.087 192.179 189.945 178.858 181.808C163.837 172.631 148.822 163.466 143.329 145.765C142.936 144.489 143.656 143.14 144.926 142.753C146.203 142.359 147.552 143.079 147.939 144.35C152.27 158.294 163.698 166.69 176.021 174.398L176.015 174.391ZM91.3458 288.679C90.0149 288.757 88.8715 287.741 88.7929 286.41C88.7142 285.079 89.7305 283.936 91.0614 283.857C144.823 280.5 177.563 287.106 200.666 300.397C222.814 313.137 235.874 331.824 249.988 353.717C264.101 331.818 277.168 313.137 299.309 300.397C322.406 287.106 355.152 280.5 408.914 283.857C410.245 283.936 411.262 285.079 411.183 286.41C411.104 287.741 409.961 288.757 408.63 288.679C355.915 285.388 324.01 291.746 301.711 304.577C285.087 314.141 273.666 327.432 262.855 343.052C278.445 329.398 293.526 318.92 311.838 311.939C335.715 302.841 364.922 299.78 407.692 303.53C409.023 303.645 410.009 304.819 409.894 306.15C409.779 307.481 408.606 308.467 407.275 308.352C365.279 304.674 336.738 307.626 313.556 316.458C290.429 325.266 272.474 339.997 251.724 359.857C251.712 359.869 251.7 359.881 251.688 359.893L251.682 359.899L251.658 359.924L251.639 359.942L251.621 359.96C251.458 360.111 251.276 360.238 251.083 360.335L251.071 360.341L251.034 360.359L251.01 360.371L250.998 360.377C250.684 360.523 250.351 360.595 250.024 360.601H250.012H249.976H249.933H249.921C249.619 360.595 249.316 360.529 249.026 360.408H249.02L248.978 360.39L248.959 360.383L248.941 360.377C248.699 360.262 248.476 360.105 248.276 359.912L248.27 359.906L248.258 359.893L248.252 359.887L248.24 359.875L248.234 359.869C227.484 340.009 209.529 325.278 186.402 316.47C163.22 307.638 134.678 304.686 92.6827 308.364C91.3518 308.479 90.1782 307.493 90.0633 306.162C89.9483 304.831 90.9344 303.657 92.2653 303.542C135.035 299.798 164.242 302.859 188.12 311.951C206.431 318.926 221.513 329.41 237.102 343.064C226.292 327.444 214.871 314.153 198.247 304.583C175.948 291.752 144.049 285.394 91.3276 288.685L91.3458 288.679ZM160.225 321.213C161.562 321.213 162.645 322.296 162.645 323.633C162.645 324.97 161.562 326.053 160.225 326.053H92.229C90.892 326.053 89.8092 324.97 89.8092 323.633C89.8092 322.296 90.892 321.213 92.229 321.213H160.225ZM92.229 344.745C90.892 344.745 89.8092 343.663 89.8092 342.326C89.8092 340.989 90.892 339.906 92.229 339.906H215.409C216.746 339.906 217.829 340.989 217.829 342.326C217.829 343.663 216.746 344.745 215.409 344.745H92.229ZM249.994 387.812C242.837 387.812 237.229 386.112 232.922 383.571C227.272 380.244 223.89 375.501 222.178 371.236C220.539 367.159 218.409 367.177 213.031 367.225C212.535 367.231 212.021 367.231 211.459 367.238L77.4319 367.824C76.101 367.83 75.0181 366.754 75.0121 365.423V365.411H75V355.169C75 353.832 76.0829 352.749 77.4198 352.749H215.33C221.005 352.749 224.725 353.687 227.804 355.719C230.823 357.716 232.971 360.613 235.645 364.66C237.617 367.649 239.304 369.53 241.355 370.607C243.424 371.69 246.08 372.083 250 372.083C253.92 372.083 256.576 371.696 258.645 370.607C260.696 369.53 262.383 367.649 264.355 364.66C267.029 360.613 269.177 357.71 272.196 355.719C275.275 353.687 278.989 352.749 284.67 352.749H422.58C423.917 352.749 425 353.832 425 355.169V365.411C425 366.748 423.917 367.83 422.58 367.83C422.508 367.83 422.429 367.824 422.356 367.818L288.547 367.231C287.985 367.231 287.465 367.225 286.975 367.219C281.597 367.171 279.461 367.153 277.828 371.23C276.116 375.489 272.734 380.238 267.084 383.565C262.777 386.1 257.163 387.806 250.012 387.806L249.994 387.812ZM235.36 379.415C238.978 381.545 243.769 382.972 249.994 382.972C256.219 382.972 261.01 381.545 264.628 379.415C269.213 376.717 271.948 372.882 273.327 369.446C276.194 362.313 279.255 362.337 286.993 362.41C287.495 362.416 288.021 362.422 288.547 362.422L420.142 363.003V357.601H284.652C279.999 357.601 277.078 358.278 274.845 359.76C272.553 361.279 270.713 363.789 268.366 367.34C265.94 371.012 263.757 373.384 260.877 374.896C258.016 376.403 254.688 376.935 249.982 376.935C245.275 376.935 241.948 376.396 239.087 374.896C236.213 373.384 234.023 371.012 231.597 367.34C229.25 363.789 227.417 361.273 225.118 359.76C222.886 358.284 219.964 357.601 215.312 357.601H79.8215V363.003L211.416 362.422C211.943 362.422 212.469 362.416 212.971 362.41C220.708 362.343 223.775 362.313 226.637 369.446C228.016 372.882 230.75 376.717 235.336 379.415H235.36ZM398.394 186.164C401.607 186.164 404.516 187.464 406.622 189.576C408.727 191.681 410.034 194.591 410.034 197.803C410.034 201.015 408.733 203.925 406.622 206.03C404.516 208.136 401.607 209.442 398.394 209.442C395.182 209.442 392.272 208.142 390.167 206.03C388.062 203.925 386.755 201.015 386.755 197.803C386.755 194.591 388.056 191.681 390.167 189.576C392.272 187.471 395.182 186.164 398.394 186.164ZM403.204 192.994C401.976 191.766 400.276 191.003 398.394 191.003C396.519 191.003 394.819 191.766 393.585 192.994C392.357 194.222 391.595 195.922 391.595 197.803C391.595 199.678 392.357 201.378 393.585 202.612C394.813 203.84 396.513 204.603 398.394 204.603C400.27 204.603 401.97 203.84 403.204 202.612C404.432 201.384 405.194 199.684 405.194 197.803C405.194 195.928 404.432 194.228 403.204 192.994ZM389.435 224.578C393.99 224.578 398.116 226.423 401.104 229.412C404.093 232.4 405.938 236.526 405.938 241.081C405.938 245.636 404.093 249.762 401.104 252.751C398.116 255.739 393.99 257.584 389.435 257.584C384.88 257.584 380.754 255.739 377.765 252.751C374.777 249.762 372.932 245.636 372.932 241.081C372.932 236.526 374.777 232.4 377.765 229.412C380.754 226.423 384.88 224.578 389.435 224.578ZM397.686 232.836C395.575 230.724 392.659 229.418 389.435 229.418C386.211 229.418 383.295 230.724 381.183 232.836C379.072 234.947 377.765 237.863 377.765 241.087C377.765 244.312 379.072 247.228 381.183 249.339C383.295 251.45 386.211 252.757 389.435 252.757C392.659 252.757 395.575 251.45 397.686 249.339C399.798 247.228 401.104 244.312 401.104 241.087C401.104 237.863 399.798 234.947 397.686 232.836ZM348.462 175.922C353.017 175.922 357.143 177.767 360.131 180.756C363.12 183.744 364.965 187.87 364.965 192.425C364.965 196.98 363.12 201.106 360.131 204.095C357.143 207.083 353.017 208.928 348.462 208.928C343.906 208.928 339.781 207.083 336.792 204.095C333.804 201.106 331.959 196.98 331.959 192.425C331.959 187.87 333.804 183.744 336.792 180.756C339.781 177.767 343.906 175.922 348.462 175.922ZM356.713 184.18C354.602 182.068 351.686 180.762 348.462 180.762C345.237 180.762 342.321 182.068 340.21 184.18C338.099 186.291 336.792 189.207 336.792 192.431C336.792 195.655 338.099 198.571 340.21 200.683C342.321 202.794 345.237 204.101 348.462 204.101C351.686 204.101 354.602 202.794 356.713 200.683C358.824 198.571 360.131 195.655 360.131 192.431C360.131 189.207 358.824 186.291 356.713 184.18ZM304.415 114.973C308.971 114.973 313.096 116.818 316.085 119.807C319.073 122.795 320.918 126.921 320.918 131.476C320.918 136.032 319.073 140.157 316.085 143.146C313.096 146.134 308.971 147.979 304.415 147.979C299.86 147.979 295.734 146.134 292.746 143.146C289.757 140.157 287.912 136.032 287.912 131.476C287.912 126.921 289.757 122.795 292.746 119.807C295.734 116.818 299.86 114.973 304.415 114.973ZM312.667 123.231C310.556 121.12 307.64 119.813 304.415 119.813C301.191 119.813 298.275 121.12 296.164 123.231C294.052 125.342 292.746 128.258 292.746 131.482C292.746 134.707 294.052 137.623 296.164 139.734C298.275 141.845 301.191 143.152 304.415 143.152C307.64 143.152 310.556 141.845 312.667 139.734C314.778 137.623 316.085 134.707 316.085 131.482C316.085 128.258 314.778 125.342 312.667 123.231ZM274.252 82.2576C272.141 80.1463 269.225 78.8396 266.001 78.8396C262.777 78.8396 259.861 80.1463 257.749 82.2576C255.638 84.3688 254.331 87.2847 254.331 90.5091C254.331 93.7335 255.638 96.6493 257.749 98.7606C259.861 100.872 262.777 102.179 266.001 102.179C269.225 102.179 272.141 100.872 274.252 98.7606C276.364 96.6493 277.67 93.7335 277.67 90.5091C277.67 87.2847 276.364 84.3688 274.252 82.2576ZM256.636 187.858C256.618 189.189 255.517 190.253 254.186 190.229C252.855 190.211 251.791 189.11 251.815 187.779C252.123 168.536 256.443 150.163 265.075 132.765C273.484 115.814 285.97 99.8132 302.812 84.8528C303.81 83.9635 305.335 84.0543 306.224 85.0524C307.113 86.0506 307.023 87.5751 306.024 88.4644C289.642 103.013 277.525 118.524 269.401 134.906C261.089 151.657 256.933 169.34 256.636 187.858ZM407.753 339.912C409.09 339.912 410.173 340.995 410.173 342.332C410.173 343.669 409.09 344.752 407.753 344.752H284.573C283.236 344.752 282.153 343.669 282.153 342.332C282.153 340.995 283.236 339.912 284.573 339.912H407.753Z" fill="white"/>
</svg>
